<svg width="48" height="48" viewBox="0 0 48 48" fill="none" xmlns="http://www.w3.org/2000/svg">
<path d="M14.4 38.4C13.08 38.4 11.95 37.93 11.01 36.99C10.07 36.05 9.6 34.92 9.6 33.6V4.8C9.6 3.48 10.07 2.35 11.01 1.41C11.95 0.47 13.08 0 14.4 0H43.2C44.52 0 45.65 0.47 46.59 1.41C47.53 2.35 48 3.48 48 4.8V33.6C48 34.92 47.53 36.05 46.59 36.99C45.65 37.93 44.52 38.4 43.2 38.4H14.4ZM4.8 48C3.48 48 2.35 47.53 1.41 46.59C0.47 45.65 0 44.52 0 43.2V12C0 11.32 0.23 10.75 0.69 10.29C1.15 9.83 1.72 9.6 2.4 9.6C3.08 9.6 3.65 9.83 4.11 10.29C4.57 10.75 4.8 11.32 4.8 12V43.2H36C36.68 43.2 37.25 43.43 37.71 43.89C38.17 44.35 38.4 44.92 38.4 45.6C38.4 46.28 38.17 46.85 37.71 47.31C37.25 47.77 36.68 48 36 48H4.8ZM25.44 25.92L28.8 22.56L32.16 25.92C32.6 26.36 33.16 26.58 33.84 26.58C34.52 26.58 35.08 26.36 35.52 25.92C35.96 25.48 36.18 24.92 36.18 24.24C36.18 23.56 35.96 23 35.52 22.56L32.16 19.2L35.52 15.84C35.96 15.4 36.18 14.84 36.18 14.16C36.18 13.48 35.96 12.92 35.52 12.48C35.08 12.04 34.52 11.82 33.84 11.82C33.16 11.82 32.6 12.04 32.16 12.48L28.8 15.84L25.44 12.48C25 12.04 24.44 11.82 23.76 11.82C23.08 11.82 22.52 12.04 22.08 12.48C21.64 12.92 21.42 13.48 21.42 14.16C21.42 14.84 21.64 15.4 22.08 15.84L25.44 19.2L22.08 22.56C21.64 23 21.42 23.56 21.42 24.24C21.42 24.92 21.64 25.48 22.08 25.92C22.52 26.36 23.08 26.58 23.76 26.58C24.44 26.58 25 26.36 25.44 25.92Z" fill="black"/>
</svg>
