<svg width="35" height="35" viewBox="0 0 35 35" fill="none" xmlns="http://www.w3.org/2000/svg">
<path d="M13.37 9.87C13.7725 8.995 14 8.0325 14 7C14 3.1325 10.8675 0 7 0C3.1325 0 0 3.1325 0 7C0 10.8675 3.1325 14 7 14C8.0325 14 8.995 13.7725 9.87 13.37L14 17.5L9.87 21.63C8.995 21.2275 8.0325 21 7 21C3.1325 21 0 24.1325 0 28C0 31.8675 3.1325 35 7 35C10.8675 35 14 31.8675 14 28C14 26.9675 13.7725 26.005 13.37 25.13L17.5 21L29.75 33.25H35V31.5L13.37 9.87ZM7 10.5C5.075 10.5 3.5 8.9425 3.5 7C3.5 5.0575 5.075 3.5 7 3.5C8.925 3.5 10.5 5.0575 10.5 7C10.5 8.9425 8.925 10.5 7 10.5ZM7 31.5C5.075 31.5 3.5 29.9425 3.5 28C3.5 26.0575 5.075 24.5 7 24.5C8.925 24.5 10.5 26.0575 10.5 28C10.5 29.9425 8.925 31.5 7 31.5ZM17.5 18.375C17.01 18.375 16.625 17.99 16.625 17.5C16.625 17.01 17.01 16.625 17.5 16.625C17.99 16.625 18.375 17.01 18.375 17.5C18.375 17.99 17.99 18.375 17.5 18.375ZM29.75 1.75L19.25 12.25L22.75 15.75L35 3.5V1.75H29.75Z" fill="white"/>
</svg>
