<svg width="68" height="68" viewBox="0 0 68 68" fill="none" xmlns="http://www.w3.org/2000/svg">
<path d="M26.1333 19.4667C26.9 17.8 27.3333 15.9667 27.3333 14C27.3333 6.63332 21.3667 0.666656 14 0.666656C6.63332 0.666656 0.666656 6.63332 0.666656 14C0.666656 21.3667 6.63332 27.3333 14 27.3333C15.9667 27.3333 17.8 26.9 19.4667 26.1333L27.3333 34L19.4667 41.8667C17.8 41.1 15.9667 40.6667 14 40.6667C6.63332 40.6667 0.666656 46.6333 0.666656 54C0.666656 61.3667 6.63332 67.3333 14 67.3333C21.3667 67.3333 27.3333 61.3667 27.3333 54C27.3333 52.0333 26.9 50.2 26.1333 48.5333L34 40.6667L57.3333 64H67.3333V60.6667L26.1333 19.4667ZM14 20.6667C10.3333 20.6667 7.33332 17.7 7.33332 14C7.33332 10.3 10.3333 7.33332 14 7.33332C17.6667 7.33332 20.6667 10.3 20.6667 14C20.6667 17.7 17.6667 20.6667 14 20.6667ZM14 60.6667C10.3333 60.6667 7.33332 57.7 7.33332 54C7.33332 50.3 10.3333 47.3333 14 47.3333C17.6667 47.3333 20.6667 50.3 20.6667 54C20.6667 57.7 17.6667 60.6667 14 60.6667ZM34 35.6667C33.0667 35.6667 32.3333 34.9333 32.3333 34C32.3333 33.0667 33.0667 32.3333 34 32.3333C34.9333 32.3333 35.6667 33.0667 35.6667 34C35.6667 34.9333 34.9333 35.6667 34 35.6667ZM57.3333 3.99999L37.3333 24L44 30.6667L67.3333 7.33332V3.99999H57.3333Z" fill="black"/>
</svg>
