<svg width="125" height="104" viewBox="0 0 125 104" fill="none" xmlns="http://www.w3.org/2000/svg">
<path d="M4.445 39C4.04167 39 3.71167 38.8717 3.455 38.615C3.19833 38.3583 3.07 38.0283 3.07 37.625V1.875C3.07 1.47166 3.19833 1.14166 3.455 0.884999C3.71167 0.628331 4.04167 0.499997 4.445 0.499997H28.975C29.3783 0.499997 29.7083 0.628331 29.965 0.884999C30.2217 1.14166 30.35 1.47166 30.35 1.875V6.55C30.35 6.95333 30.2217 7.28333 29.965 7.54C29.7083 7.79667 29.3783 7.925 28.975 7.925H11.65V17.22H27.875C28.2783 17.22 28.6083 17.3483 28.865 17.605C29.1217 17.8617 29.25 18.1917 29.25 18.595V23.27C29.25 23.6367 29.1217 23.9483 28.865 24.205C28.6083 24.4617 28.2783 24.59 27.875 24.59H11.65V37.625C11.65 38.0283 11.5217 38.3583 11.265 38.615C11.0083 38.8717 10.6783 39 10.275 39H4.445ZM37.9606 39C37.5573 39 37.2273 38.8717 36.9706 38.615C36.714 38.3583 36.5856 38.0283 36.5856 37.625V1.875C36.5856 1.47166 36.714 1.14166 36.9706 0.884999C37.2273 0.628331 37.5573 0.499997 37.9606 0.499997H44.0656C44.469 0.499997 44.799 0.628331 45.0556 0.884999C45.3123 1.14166 45.4406 1.47166 45.4406 1.875V31.63H62.4906C62.894 31.63 63.224 31.7583 63.4806 32.015C63.7373 32.2717 63.8656 32.6017 63.8656 33.005V37.625C63.8656 38.0283 63.7373 38.3583 63.4806 38.615C63.224 38.8717 62.894 39 62.4906 39H37.9606ZM70.2946 39C69.8913 39 69.5613 38.8717 69.3046 38.615C69.0479 38.3583 68.9196 38.0283 68.9196 37.625V1.875C68.9196 1.47166 69.0479 1.14166 69.3046 0.884999C69.5613 0.628331 69.8913 0.499997 70.2946 0.499997H76.5096C76.9129 0.499997 77.2429 0.628331 77.4996 0.884999C77.7563 1.14166 77.8846 1.47166 77.8846 1.875V37.625C77.8846 38.0283 77.7563 38.3583 77.4996 38.615C77.2429 38.8717 76.9129 39 76.5096 39H70.2946ZM83.9097 39C83.5797 39 83.3047 38.89 83.0847 38.67C82.8647 38.4133 82.7547 38.1383 82.7547 37.845C82.7547 37.735 82.773 37.625 82.8097 37.515C82.8464 37.405 82.883 37.295 82.9197 37.185L95.0747 19.365L83.7447 2.315C83.6347 2.095 83.5797 1.875 83.5797 1.655C83.5797 1.36166 83.6897 1.105 83.9097 0.884999C84.1297 0.628331 84.4047 0.499997 84.7347 0.499997H91.4997C91.9764 0.499997 92.343 0.628331 92.5997 0.884999C92.893 1.14166 93.113 1.38 93.2597 1.6L100.63 12.545L108.055 1.6C108.201 1.38 108.421 1.14166 108.715 0.884999C109.008 0.628331 109.393 0.499997 109.87 0.499997H116.305C116.598 0.499997 116.855 0.628331 117.075 0.884999C117.331 1.105 117.46 1.36166 117.46 1.655C117.46 1.91166 117.386 2.13166 117.24 2.315L105.91 19.31L118.12 37.185C118.193 37.295 118.23 37.405 118.23 37.515C118.266 37.625 118.285 37.735 118.285 37.845C118.285 38.1383 118.175 38.4133 117.955 38.67C117.735 38.89 117.46 39 117.13 39H110.145C109.668 39 109.283 38.8717 108.99 38.615C108.733 38.3583 108.531 38.1383 108.385 37.955L100.355 26.405L92.3797 37.955C92.2697 38.1383 92.068 38.3583 91.7747 38.615C91.518 38.8717 91.133 39 90.6197 39H83.9097ZM14.18 104C13.5933 104 13.1167 103.853 12.75 103.56C12.42 103.23 12.1817 102.845 12.035 102.405L0.485 67.15C0.448333 66.9667 0.43 66.8017 0.43 66.655C0.43 66.3617 0.54 66.105 0.76 65.885C0.98 65.6283 1.255 65.5 1.585 65.5H7.36C7.91 65.5 8.33167 65.665 8.625 65.995C8.955 66.2883 9.15667 66.5633 9.23 66.82L17.81 93.715L26.335 66.82C26.445 66.5633 26.6467 66.2883 26.94 65.995C27.2333 65.665 27.655 65.5 28.205 65.5H33.98C34.31 65.5 34.585 65.6283 34.805 65.885C35.025 66.105 35.135 66.3617 35.135 66.655C35.135 66.8017 35.1167 66.9667 35.08 67.15L23.53 102.405C23.42 102.845 23.1817 103.23 22.815 103.56C22.485 103.853 22.0083 104 21.385 104H14.18ZM41.9889 104C41.5856 104 41.2556 103.872 40.9989 103.615C40.7423 103.358 40.6139 103.028 40.6139 102.625V66.875C40.6139 66.4717 40.7423 66.1417 40.9989 65.885C41.2556 65.6283 41.5856 65.5 41.9889 65.5H48.2039C48.6073 65.5 48.9373 65.6283 49.1939 65.885C49.4506 66.1417 49.5789 66.4717 49.5789 66.875V102.625C49.5789 103.028 49.4506 103.358 49.1939 103.615C48.9373 103.872 48.6073 104 48.2039 104H41.9889ZM59.069 104C58.6657 104 58.3357 103.872 58.079 103.615C57.8224 103.358 57.694 103.028 57.694 102.625V66.875C57.694 66.4717 57.8224 66.1417 58.079 65.885C58.3357 65.6283 58.6657 65.5 59.069 65.5H75.404C78.4474 65.5 80.9407 65.94 82.884 66.82C84.8274 67.7 86.2574 68.9467 87.174 70.56C88.1274 72.1733 88.604 74.0617 88.604 76.225C88.604 77.5817 88.3474 78.7733 87.834 79.8C87.3574 80.8267 86.7524 81.67 86.019 82.33C85.3224 82.99 84.644 83.485 83.984 83.815C85.414 84.475 86.6607 85.575 87.724 87.115C88.824 88.6183 89.374 90.415 89.374 92.505C89.374 94.815 88.8607 96.8317 87.834 98.555C86.8074 100.278 85.2857 101.617 83.269 102.57C81.2524 103.523 78.7957 104 75.899 104H59.069ZM66.439 97.565H74.854C76.6507 97.565 78.0074 97.07 78.924 96.08C79.8407 95.0533 80.299 93.8433 80.299 92.45C80.299 91.02 79.8224 89.8283 78.869 88.875C77.9524 87.885 76.614 87.39 74.854 87.39H66.439V97.565ZM66.439 81.065H74.359C76.0824 81.065 77.3657 80.6433 78.209 79.8C79.089 78.92 79.529 77.8017 79.529 76.445C79.529 75.0883 79.089 74.0067 78.209 73.2C77.3657 72.3567 76.0824 71.935 74.359 71.935H66.439V81.065ZM97.3112 104C96.9079 104 96.5779 103.872 96.3212 103.615C96.0645 103.358 95.9362 103.028 95.9362 102.625V66.875C95.9362 66.4717 96.0645 66.1417 96.3212 65.885C96.5779 65.6283 96.9079 65.5 97.3112 65.5H122.226C122.63 65.5 122.96 65.6283 123.216 65.885C123.473 66.1417 123.601 66.4717 123.601 66.875V71.275C123.601 71.6417 123.473 71.9533 123.216 72.21C122.96 72.4667 122.63 72.595 122.226 72.595H104.406V81.23H121.016C121.42 81.23 121.75 81.3583 122.006 81.615C122.263 81.8717 122.391 82.2017 122.391 82.605V86.675C122.391 87.0417 122.263 87.3533 122.006 87.61C121.75 87.8667 121.42 87.995 121.016 87.995H104.406V96.905H122.666C123.07 96.905 123.4 97.0333 123.656 97.29C123.913 97.5467 124.041 97.8767 124.041 98.28V102.625C124.041 103.028 123.913 103.358 123.656 103.615C123.4 103.872 123.07 104 122.666 104H97.3112Z" fill="black"/>
</svg>
