<svg width="68" height="71" viewBox="0 0 68 71" fill="none" xmlns="http://www.w3.org/2000/svg">
<path d="M40.6666 13.6667C40.6666 10 37.6666 7.00001 34 7.00001H30.6666V3.66668C30.6666 1.83334 29.1666 0.333344 27.3333 0.333344H14C12.1666 0.333344 10.6666 1.83334 10.6666 3.66668V7.00001H7.33329C3.66663 7.00001 0.666626 10 0.666626 13.6667V63.6667C0.666626 67.3333 3.66663 70.3333 7.33329 70.3333H34C37.6666 70.3333 40.6666 67.3333 40.6666 63.6667H67.3333V13.6667H40.6666ZM34 57H27.3333V50.3333H34V57ZM34 27H27.3333V20.3333H34V27ZM47.3333 57H40.6666V50.3333H47.3333V57ZM47.3333 27H40.6666V20.3333H47.3333V27ZM60.6666 57H54V50.3333H60.6666V57ZM60.6666 27H54V20.3333H60.6666V27Z" fill="black"/>
</svg>
