<svg width="35" height="35" viewBox="0 0 35 35" fill="none" xmlns="http://www.w3.org/2000/svg">
<path d="M21 6.66667C21 4.83333 19.425 3.33333 17.5 3.33333H15.75V1.66667C15.75 0.75 14.9625 0 14 0H7C6.0375 0 5.25 0.75 5.25 1.66667V3.33333H3.5C1.575 3.33333 0 4.83333 0 6.66667V31.6667C0 33.5 1.575 35 3.5 35H17.5C19.425 35 21 33.5 21 31.6667H35V6.66667H21ZM17.5 28.3333H14V25H17.5V28.3333ZM17.5 13.3333H14V10H17.5V13.3333ZM24.5 28.3333H21V25H24.5V28.3333ZM24.5 13.3333H21V10H24.5V13.3333ZM31.5 28.3333H28V25H31.5V28.3333ZM31.5 13.3333H28V10H31.5V13.3333Z" fill="white"/>
</svg>
