<svg width="217" height="182" viewBox="0 0 217 182" fill="none" xmlns="http://www.w3.org/2000/svg">
<g style="mix-blend-mode:screen">
<path d="M7.504 68C6.8 68 6.224 67.776 5.776 67.328C5.328 66.88 5.104 66.304 5.104 65.6V3.2C5.104 2.496 5.328 1.92 5.776 1.472C6.224 1.024 6.8 0.799995 7.504 0.799995H50.32C51.024 0.799995 51.6 1.024 52.048 1.472C52.496 1.92 52.72 2.496 52.72 3.2V11.36C52.72 12.064 52.496 12.64 52.048 13.088C51.6 13.536 51.024 13.76 50.32 13.76H20.08V29.984H48.4C49.104 29.984 49.68 30.208 50.128 30.656C50.576 31.104 50.8 31.68 50.8 32.384V40.544C50.8 41.184 50.576 41.728 50.128 42.176C49.68 42.624 49.104 42.848 48.4 42.848H20.08V65.6C20.08 66.304 19.856 66.88 19.408 67.328C18.96 67.776 18.384 68 17.68 68H7.504ZM66.004 68C65.3 68 64.724 67.776 64.276 67.328C63.828 66.88 63.604 66.304 63.604 65.6V3.2C63.604 2.496 63.828 1.92 64.276 1.472C64.724 1.024 65.3 0.799995 66.004 0.799995H76.66C77.364 0.799995 77.94 1.024 78.388 1.472C78.836 1.92 79.06 2.496 79.06 3.2V55.136H108.82C109.524 55.136 110.1 55.36 110.548 55.808C110.996 56.256 111.22 56.832 111.22 57.536V65.6C111.22 66.304 110.996 66.88 110.548 67.328C110.1 67.776 109.524 68 108.82 68H66.004ZM122.442 68C121.738 68 121.162 67.776 120.714 67.328C120.266 66.88 120.042 66.304 120.042 65.6V3.2C120.042 2.496 120.266 1.92 120.714 1.472C121.162 1.024 121.738 0.799995 122.442 0.799995H133.29C133.994 0.799995 134.57 1.024 135.018 1.472C135.466 1.92 135.69 2.496 135.69 3.2V65.6C135.69 66.304 135.466 66.88 135.018 67.328C134.57 67.776 133.994 68 133.29 68H122.442ZM146.206 68C145.63 68 145.15 67.808 144.766 67.424C144.382 66.976 144.19 66.496 144.19 65.984C144.19 65.792 144.222 65.6 144.286 65.408C144.35 65.216 144.414 65.024 144.478 64.832L165.694 33.728L145.918 3.96799C145.726 3.584 145.63 3.2 145.63 2.816C145.63 2.304 145.822 1.856 146.206 1.472C146.59 1.024 147.07 0.799995 147.646 0.799995H159.454C160.286 0.799995 160.926 1.024 161.374 1.472C161.886 1.92 162.27 2.336 162.526 2.72L175.39 21.824L188.35 2.72C188.606 2.336 188.99 1.92 189.502 1.472C190.014 1.024 190.686 0.799995 191.518 0.799995H202.75C203.262 0.799995 203.71 1.024 204.094 1.472C204.542 1.856 204.766 2.304 204.766 2.816C204.766 3.264 204.638 3.64799 204.382 3.96799L184.606 33.632L205.918 64.832C206.046 65.024 206.11 65.216 206.11 65.408C206.174 65.6 206.206 65.792 206.206 65.984C206.206 66.496 206.014 66.976 205.63 67.424C205.246 67.808 204.766 68 204.19 68H191.998C191.166 68 190.494 67.776 189.982 67.328C189.534 66.88 189.182 66.496 188.926 66.176L174.91 46.016L160.99 66.176C160.798 66.496 160.446 66.88 159.934 67.328C159.486 67.776 158.814 68 157.918 68H146.206ZM24.496 182C23.472 182 22.64 181.744 22 181.232C21.424 180.656 21.008 179.984 20.752 179.216L0.592 117.68C0.528 117.36 0.496 117.072 0.496 116.816C0.496 116.304 0.688 115.856 1.072 115.472C1.456 115.024 1.936 114.8 2.512 114.8H12.592C13.552 114.8 14.288 115.088 14.8 115.664C15.376 116.176 15.728 116.656 15.856 117.104L30.832 164.048L45.712 117.104C45.904 116.656 46.256 116.176 46.768 115.664C47.28 115.088 48.016 114.8 48.976 114.8H59.056C59.632 114.8 60.112 115.024 60.496 115.472C60.88 115.856 61.072 116.304 61.072 116.816C61.072 117.072 61.04 117.36 60.976 117.68L40.816 179.216C40.624 179.984 40.208 180.656 39.568 181.232C38.992 181.744 38.16 182 37.072 182H24.496ZM73.0353 182C72.3313 182 71.7553 181.776 71.3073 181.328C70.8593 180.88 70.6353 180.304 70.6353 179.6V117.2C70.6353 116.496 70.8593 115.92 71.3073 115.472C71.7553 115.024 72.3313 114.8 73.0353 114.8H83.8833C84.5873 114.8 85.1633 115.024 85.6113 115.472C86.0593 115.92 86.2833 116.496 86.2833 117.2V179.6C86.2833 180.304 86.0593 180.88 85.6113 181.328C85.1633 181.776 84.5873 182 83.8833 182H73.0353ZM102.848 182C102.144 182 101.568 181.776 101.12 181.328C100.672 180.88 100.448 180.304 100.448 179.6V117.2C100.448 116.496 100.672 115.92 101.12 115.472C101.568 115.024 102.144 114.8 102.848 114.8H131.36C136.672 114.8 141.024 115.568 144.416 117.104C147.808 118.64 150.304 120.816 151.904 123.632C153.568 126.448 154.4 129.744 154.4 133.52C154.4 135.888 153.952 137.968 153.056 139.76C152.224 141.552 151.168 143.024 149.888 144.176C148.672 145.328 147.488 146.192 146.336 146.768C148.832 147.92 151.008 149.84 152.864 152.528C154.784 155.152 155.744 158.288 155.744 161.936C155.744 165.968 154.848 169.488 153.056 172.496C151.264 175.504 148.608 177.84 145.088 179.504C141.568 181.168 137.28 182 132.224 182H102.848ZM115.712 170.768H130.4C133.536 170.768 135.904 169.904 137.504 168.176C139.104 166.384 139.904 164.272 139.904 161.84C139.904 159.344 139.072 157.264 137.408 155.6C135.808 153.872 133.472 153.008 130.4 153.008H115.712V170.768ZM115.712 141.968H129.536C132.544 141.968 134.784 141.232 136.256 139.76C137.792 138.224 138.56 136.272 138.56 133.904C138.56 131.536 137.792 129.648 136.256 128.24C134.784 126.768 132.544 126.032 129.536 126.032H115.712V141.968ZM169.598 182C168.894 182 168.318 181.776 167.87 181.328C167.422 180.88 167.198 180.304 167.198 179.6V117.2C167.198 116.496 167.422 115.92 167.87 115.472C168.318 115.024 168.894 114.8 169.598 114.8H213.086C213.79 114.8 214.366 115.024 214.814 115.472C215.262 115.92 215.486 116.496 215.486 117.2V124.88C215.486 125.52 215.262 126.064 214.814 126.512C214.366 126.96 213.79 127.184 213.086 127.184H181.982V142.256H210.974C211.678 142.256 212.254 142.48 212.702 142.928C213.15 143.376 213.374 143.952 213.374 144.656V151.76C213.374 152.4 213.15 152.944 212.702 153.392C212.254 153.84 211.678 154.064 210.974 154.064H181.982V169.616H213.854C214.558 169.616 215.134 169.84 215.582 170.288C216.03 170.736 216.254 171.312 216.254 172.016V179.6C216.254 180.304 216.03 180.88 215.582 181.328C215.134 181.776 214.558 182 213.854 182H169.598Z" fill="white"/>
</g>
</svg>
